<!DOCTYPE svg PUBLIC "-//W3C//DTD SVG 1.1//EN" "http://www.w3.org/Graphics/SVG/1.1/DTD/svg11.dtd">

<!-- Uploaded to: SVG Repo, www.svgrepo.com, Transformed by: SVG Repo Mixer Tools -->
<svg height="64px" width="64px" version="1.1" id="Layer_1" xmlns="http://www.w3.org/2000/svg" xmlns:xlink="http://www.w3.org/1999/xlink" viewBox="0 0 512 512" xml:space="preserve" fill="#fff" stroke="#fff">

<g id="SVGRepo_bgCarrier" stroke-width="0"/>

<g id="SVGRepo_tracerCarrier" stroke-linecap="round" stroke-linejoin="round"/>

<g id="SVGRepo_iconCarrier"> <g> <path style="fill:#fff;" d="M112.954,500.799c-1.831,0-3.692-0.361-5.482-1.125C50.21,475.29,13.209,419.322,13.209,357.091 c0-85.416,69.492-154.907,154.907-154.907c7.736,0,14.01,6.274,14.01,14.01c0,7.736-6.274,14.01-14.01,14.01 c-69.966,0-126.887,56.921-126.887,126.887c0,50.98,30.311,96.826,77.219,116.803c7.118,3.03,10.432,11.26,7.4,18.378 C123.582,497.6,118.401,500.799,112.954,500.799z"/> <path style="fill:#fff;" d="M283.95,512l-103.296-0.004c-7.736-0.001-14.009-6.274-14.009-14.011 c0.001-7.736,6.274-14.009,14.01-14.009h0.001l103.294,0.004c7.736,0,14.01,6.274,14.01,14.01 C297.961,505.726,291.686,512,283.95,512z"/> <path style="fill:#fff;" d="M448.929,512h-173.72c-27.493,0-49.862-22.367-49.862-49.86s22.368-49.862,49.862-49.862h76.094 c7.736,0,14.01,6.274,14.01,14.01c0,7.736-6.274,14.01-14.01,14.01h-76.094c-12.044,0-21.842,9.797-21.842,21.842 c0,12.043,9.797,21.84,21.842,21.84h173.72c12.044,0,21.842-9.797,21.842-21.84c0-12.044-9.797-21.842-21.842-21.842h-15.291 c-7.736,0-14.01-6.274-14.01-14.01c0-7.736,6.274-14.01,14.01-14.01h15.291c27.493,0,49.862,22.368,49.862,49.862 S476.422,512,448.929,512z"/> <path style="fill:#fff;" d="M339.884,322.948c-10.227,0-19.841-3.983-27.072-11.214l-31.605-31.607 c-5.471-5.471-5.471-14.342,0-19.814l69.658-69.658c5.472-5.47,14.341-5.47,19.814,0l31.607,31.607 c7.231,7.231,11.214,16.843,11.214,27.07c0,10.226-3.983,19.84-11.214,27.07l-35.33,35.33 C359.723,318.965,350.109,322.948,339.884,322.948z M310.926,270.221l21.699,21.699c1.939,1.939,4.517,3.007,7.259,3.007 c2.74,0,5.318-1.069,7.257-3.007l35.33-35.33c1.939-1.939,3.007-4.517,3.007-7.257c0-2.742-1.069-5.318-3.007-7.257l-21.699-21.697 L310.926,270.221z"/> <path style="fill:#fff;" d="M153.328,125.275c-3.587,0-7.17-1.369-9.906-4.104l-48.77-48.769 c-5.471-5.471-5.471-14.342,0-19.814l48.486-48.486c5.472-5.47,14.341-5.47,19.814,0l48.77,48.77 c5.471,5.471,5.471,14.342,0,19.814l-48.487,48.486C160.498,123.907,156.914,125.275,153.328,125.275z M124.372,62.496 l28.956,28.956l28.673-28.673l-28.956-28.956L124.372,62.496z"/> </g> <path style="fill:#fff;" d="M381.24,203.613l-87.076,87.076L143.886,140.414c-7.26-7.26-7.26-19.028,0-26.288l60.788-60.788 c7.26-7.26,19.028-7.26,26.288,0L381.24,203.613z"/> <g> <path style="fill:#fff;" d="M294.163,304.699c-3.587,0-7.17-1.369-9.906-4.104L133.98,150.32 c-12.707-12.711-12.707-33.391-0.001-46.101l60.789-60.788c6.159-6.157,14.343-9.546,23.052-9.546 c8.707,0,16.893,3.39,23.051,9.546l150.276,150.274c5.471,5.471,5.471,14.342,0,19.814l-87.076,87.076 C301.334,303.331,297.748,304.699,294.163,304.699z M217.82,61.903c-0.709,0-2.072,0.174-3.239,1.341l-60.789,60.788 c-1.785,1.783-1.785,4.692,0,6.477L294.16,270.875l67.263-67.263L221.058,63.244C219.891,62.077,218.527,61.903,217.82,61.903z"/> <path style="fill:#fff;" d="M275.185,323.679c-3.587,0-7.17-1.369-9.906-4.104c-5.471-5.471-5.471-14.342,0-19.814 l125.034-125.034c5.472-5.47,14.341-5.47,19.814,0c5.471,5.471,5.471,14.342,0,19.814L285.093,319.575 C282.356,322.31,278.77,323.679,275.185,323.679z"/> </g> <circle style="fill:#fff;" cx="209.646" cy="210.612" r="47.627"/> <path style="fill:#fff;" d="M209.646,272.248c-33.987,0-61.637-27.65-61.637-61.637s27.65-61.637,61.637-61.637 s61.637,27.65,61.637,61.637S243.633,272.248,209.646,272.248z M209.646,176.993c-18.537,0-33.617,15.08-33.617,33.617 s15.08,33.617,33.617,33.617s33.617-15.08,33.617-33.617S228.185,176.993,209.646,176.993z"/> </g>

</svg>