<svg xmlns="http://www.w3.org/2000/svg" xmlns:xlink="http://www.w3.org/1999/xlink" version="1.1" x="0px" y="0px" viewBox="0 0 100 125" enable-background="new 0 0 100 100" xml:space="preserve"><path d="M50,94.5c24.576,0,44.5-19.924,44.5-44.5C94.5,25.423,74.576,5.5,50,5.5C25.423,5.5,5.5,25.423,5.5,50  C5.5,74.576,25.423,94.5,50,94.5z M41.812,47.922l31.5-23.96c0.371-0.215,0.785-0.322,1.2-0.322c0.414,0,0.828,0.107,1.2,0.322  c0.742,0.429,1.199,1.221,1.199,2.078v47.92c0,0.857-0.458,1.649-1.2,2.079c-0.371,0.214-0.785,0.32-1.199,0.32  c-0.415,0-0.829-0.106-1.201-0.32L41.812,52.078C41.069,51.649,40.61,50.857,40.61,50S41.069,48.351,41.812,47.922z M23.089,26.144  c0-0.684,0.219-1.271,0.654-1.764s1.053-0.74,1.848-0.74h7.546c0.568,0,1.166,0.229,1.792,0.682  c0.625,0.457,0.938,1.062,0.938,1.822v47.714c0,1.669-0.91,2.502-2.73,2.502h-7.545c-1.668,0-2.502-0.833-2.502-2.502V26.144z"/><text x="0" y="115" fill="#000000" font-size="5px" font-weight="bold" font-family="'Helvetica Neue', Helvetica, Arial-Unicode, Arial, Sans-serif">Created by Slicon</text><text x="0" y="120" fill="#000000" font-size="5px" font-weight="bold" font-family="'Helvetica Neue', Helvetica, Arial-Unicode, Arial, Sans-serif">from the Noun Project</text></svg>