<svg xmlns="http://www.w3.org/2000/svg" xmlns:xlink="http://www.w3.org/1999/xlink" version="1.1" x="0px" y="0px" viewBox="0 0 100 125" style="enable-background:new 0 0 100 100;" xml:space="preserve"><style type="text/css">
	.st0{display:none;}
	.st1{display:inline;}
	.st2{fill:#FFFFFF;}
	.st3{display:inline;fill:#FFFFFF;}
	.st4{display:inline;fill:none;stroke:#FFFFFF;stroke-miterlimit:10;}
</style><g class="st0"><circle class="st1" cx="50" cy="50" r="45"/></g><g class="st0"><g class="st1"><g><path class="st2" d="M113.8,42.8c5.5,5.5,11,11,16.5,16.5c1.4,1.4,3.5-0.8,2.1-2.1c-5.5-5.5-11-11-16.5-16.5     C114.6,39.3,112.4,41.4,113.8,42.8L113.8,42.8z"/></g></g><g class="st1"><g><path class="st2" d="M115.9,59.3c5.5-5.5,11-11,16.5-16.5c1.4-1.4-0.8-3.5-2.1-2.1c-5.5,5.5-11,11-16.5,16.5     C112.4,58.6,114.6,60.7,115.9,59.3L115.9,59.3z"/></g></g><path class="st3" d="M-124.5,47.4l-23.7-13.7c-2-1.2-4.5,0.3-4.5,2.6v27.3c0,2.3,2.5,3.8,4.5,2.6l23.7-13.7   C-122.5,51.4-122.5,48.6-124.5,47.4z"/><path class="st3" d="M-101.2,47.4l-23.7-13.7c-2-1.2-4.5,0.3-4.5,2.6v27.3c0,2.3,2.5,3.8,4.5,2.6l23.7-13.7   C-99.2,51.4-99.2,48.6-101.2,47.4z"/><path class="st3" d="M-31.8-9.5l-27.6-15.9c-2-1.2-4.5,0.3-4.5,2.6V9.1c0,2.3,2.5,3.8,4.5,2.6l27.6-15.9   C-29.8-5.4-29.8-8.3-31.8-9.5z"/><path class="st3" d="M-25.3,12h-4.4c-1.6,0-3-1.3-3-3v-31.7c0-1.6,1.3-3,3-3h4.4c1.6,0,3,1.4,3,3V9C-22.3,10.6-23.7,12-25.3,12z"/><path class="st3" d="M-59.8,52.2l15.9,14.4c1.9,1.7,5,0.4,5-2.2V35.6c0-2.6-3.1-4-5-2.2l-15.9,14.4C-61.1,49-61.1,51-59.8,52.2z"/><path class="st3" d="M-51.7,57.9h-8.7c-1.7,0-3-1.3-3-3v-9.8c0-1.7,1.3-3,3-3h8.7c1.7,0,3,1.3,3,3v9.8   C-48.7,56.5-50,57.9-51.7,57.9z"/><g class="st1"><g><g><path class="st2" d="M-25.4,36.1c7.5,8,7.5,19.7,0,27.7c-1.3,1.4,0.8,3.5,2.1,2.1c8.6-9.2,8.6-22.7,0-32      C-24.6,32.6-26.7,34.7-25.4,36.1L-25.4,36.1z"/></g></g><g><g><path class="st2" d="M-30.1,40.1c5.4,5.8,5.4,14,0,19.9c-1.3,1.4,0.8,3.5,2.1,2.1c6.5-7,6.5-17.1,0-24.1      C-29.3,36.5-31.4,38.6-30.1,40.1L-30.1,40.1z"/></g></g><g><g><path class="st2" d="M-34.7,44c3.2,3.5,3.3,8.5,0,12c-1.3,1.4,0.8,3.5,2.1,2.1c4.4-4.7,4.4-11.5,0-16.3      C-33.9,40.4-36,42.6-34.7,44L-34.7,44z"/></g></g></g><path class="st4" d="M-92,36.3c7.2,0,13,5.8,13,13s-5.8,13-13,13"/></g><g class="st0"><path class="st1" d="M50,5C25.1,5,5,25.1,5,50c0,24.9,20.1,45,45,45s45-20.1,45-45C95,25.1,74.9,5,50,5z M73.6,52.6L39.3,72.4   c-2,1.2-4.5-0.3-4.5-2.6V30.2c0-2.3,2.5-3.8,4.5-2.6l34.3,19.8C75.6,48.6,75.6,51.4,73.6,52.6z"/></g><g class="st0"><path class="st1" d="M50,5C25.1,5,5,25.1,5,50c0,24.9,20.1,45,45,45s45-20.1,45-45C95,25.1,74.9,5,50,5z M45.3,68.2   c0,1.7-1.3,3-3,3h-8c-1.6,0-3-1.3-3-3V31.8c0-1.6,1.4-3,3-3h8c1.7,0,3,1.4,3,3V68.2z M68.5,68.2c0,1.7-1.3,3-3,3h-8   c-1.6,0-3-1.3-3-3V31.8c0-1.6,1.4-3,3-3h8c1.7,0,3,1.4,3,3V68.2z"/></g><g class="st0"><path class="st1" d="M50,5C25.1,5,5,25.1,5,50c0,24.9,20.1,45,45,45s45-20.1,45-45C95,25.1,74.9,5,50,5z M45.8,52.6L26.6,63.7   c-2,1.2-4.5-0.3-4.5-2.6V38.9c0-2.3,2.5-3.8,4.5-2.6l19.3,11.1C47.8,48.6,47.8,51.4,45.8,52.6z M62.8,60.9c0,1.7-1.4,3-3,3h-3.1   c-1.7,0-3-1.3-3-3V39.1c0-1.7,1.3-3,3-3h3.1c1.6,0,3,1.3,3,3V60.9z M77.9,60.9c0,1.7-1.3,3-3,3h-3.1c-1.7,0-3-1.3-3-3V39.1   c0-1.7,1.3-3,3-3h3.1c1.7,0,3,1.3,3,3V60.9z"/></g><g class="st0"><path class="st1" d="M50,5C25.1,5,5,25.1,5,50c0,24.9,20.1,45,45,45s45-20.1,45-45C95,25.1,74.9,5,50,5z M69.8,66.8   c0,1.7-1.3,3-3,3H33.2c-1.7,0-3-1.3-3-3V33.2c0-1.7,1.3-3,3-3h33.6c1.7,0,3,1.3,3,3V66.8z"/></g><g class="st0"><path class="st1" d="M50,5C25.1,5,5,25.1,5,50c0,24.9,20.1,45,45,45s45-20.1,45-45C95,25.1,74.9,5,50,5z M50,71.6   c-11.9,0-21.6-9.7-21.6-21.6c0-11.9,9.7-21.6,21.6-21.6S71.6,38.1,71.6,50C71.6,61.9,61.9,71.6,50,71.6z"/></g><g class="st0"><path class="st1" d="M50,5C25.1,5,5,25.1,5,50c0,24.9,20.1,45,45,45s45-20.1,45-45C95,25.1,74.9,5,50,5z M77.5,52.6L53.8,66.3   c-2,1.2-4.5-0.3-4.5-2.6v-8.3L30.5,66.3c-2,1.2-4.5-0.3-4.5-2.6V36.3c0-2.3,2.5-3.8,4.5-2.6l18.8,10.9v-8.3c0-2.3,2.5-3.8,4.5-2.6   l23.7,13.7C79.5,48.6,79.5,51.4,77.5,52.6z"/></g><g class="st0"><path class="st1" d="M50,5C25.1,5,5,25.1,5,50c0,24.9,20.1,45,45,45s45-20.1,45-45C95,25.1,74.9,5,50,5z M74,63.7   c0,2.3-2.5,3.8-4.5,2.6L50.7,55.4v8.3c0,2.3-2.5,3.8-4.5,2.6L22.5,52.6c-2-1.2-2-4,0-5.2l23.7-13.7c2-1.2,4.5,0.3,4.5,2.6v8.3   l18.8-10.9c2-1.2,4.5,0.3,4.5,2.6V63.7z"/></g><g><path d="M50,5C25.1,5,5,25.1,5,50c0,24.9,20.1,45,45,45s45-20.1,45-45C95,25.1,74.9,5,50,5z M68.8,65.9c0,1.7-1.4,3-3,3h-0.4   c-1.6,0-3-1.3-3-3V53.1L35.7,68.5c-2,1.2-4.5-0.3-4.5-2.6V34.1c0-2.3,2.5-3.8,4.5-2.6l26.7,15.4V34.1c0-1.6,1.4-3,3-3h0.4   c1.6,0,3,1.4,3,3V65.9z"/></g><g class="st0"><path class="st1" d="M50,5C25.1,5,5,25.1,5,50c0,24.9,20.1,45,45,45s45-20.1,45-45C95,25.1,74.9,5,50,5z M68.8,65.9   c0,2.3-2.5,3.8-4.5,2.6L37.6,53.1v12.8c0,1.6-1.4,3-3,3h-0.4c-1.6,0-3-1.4-3-3V34.1c0-1.7,1.4-3,3-3h0.4c1.6,0,3,1.3,3,3v12.8   l26.7-15.4c2-1.2,4.5,0.3,4.5,2.6V65.9z"/></g><g class="st0"><path class="st1" d="M50,5C25.1,5,5,25.1,5,50c0,24.9,20.1,45,45,45s45-20.1,45-45C95,25.1,74.9,5,50,5z M38.5,65.9   c0,1.7-1.3,3-3,3h-0.4c-1.7,0-3-1.3-3-3V34.1c0-1.6,1.3-3,3-3h0.4c1.7,0,3,1.4,3,3V65.9z M75.4,52.6L47.8,68.5   c-2,1.2-4.5-0.3-4.5-2.6V34.1c0-2.3,2.5-3.8,4.5-2.6l27.6,15.9C77.4,48.6,77.4,51.4,75.4,52.6z"/></g><g class="st0"><path class="st1" d="M50,5C25.1,5,5,25.1,5,50c0,24.9,20.1,45,45,45s45-20.1,45-45C95,25.1,74.9,5,50,5z M57.2,65.9   c0,2.3-2.5,3.8-4.5,2.6L25.1,52.6c-2-1.2-2-4,0-5.2l27.6-15.9c2-1.2,4.5,0.3,4.5,2.6V65.9z M68.4,65.9c0,1.7-1.3,3-3,3H65   c-1.7,0-3-1.3-3-3V34.1c0-1.6,1.3-3,3-3h0.4c1.7,0,3,1.4,3,3V65.9z"/></g><g class="st0"><path class="st1" d="M50,5C25.1,5,5,25.1,5,50c0,24.9,20.1,45,45,45s45-20.1,45-45C95,25.1,74.9,5,50,5z M51.8,66.7   c0,3-3.6,4.6-5.8,2.6L34.7,59.2h-9.2c-1.9,0-3.5-1.6-3.5-3.5V44.3c0-1.9,1.6-3.5,3.5-3.5h9.2L46,30.7c2.2-2,5.8-0.4,5.8,2.6V66.7z    M56.6,57c3.8-4.1,3.8-9.9,0-14c-1.5-1.7,0.9-4.1,2.5-2.5c5.1,5.5,5.1,13.4,0,19C57.5,61.1,55.1,58.7,56.6,57z M62,61.6   c6.2-6.7,6.2-16.4,0-23.1c-1.5-1.6,0.9-4.1,2.5-2.5c7.6,8.1,7.6,20,0,28.1C62.9,65.7,60.5,63.2,62,61.6z M69.9,68.6   c-1.5,1.6-4-0.8-2.5-2.5c8.7-9.3,8.7-23,0-32.3c-1.5-1.6,0.9-4.1,2.5-2.5C80,42.1,80,57.9,69.9,68.6z"/></g><g class="st0"><path class="st1" d="M50,5C25.1,5,5,25.1,5,50c0,24.9,20.1,45,45,45s45-20.1,45-45C95,25.1,74.9,5,50,5z M58.1,66.7   c0,3-3.6,4.6-5.8,2.6L41,59.2h-9.2c-1.9,0-3.5-1.6-3.5-3.5V44.3c0-1.9,1.6-3.5,3.5-3.5H41l11.3-10.2c2.2-2,5.8-0.4,5.8,2.6V66.7z    M65.3,59.5c-1.5,1.7-4-0.8-2.5-2.5c3.8-4.1,3.8-9.9,0-14c-1.5-1.7,0.9-4.1,2.5-2.5C70.4,46,70.4,54,65.3,59.5z"/></g><g class="st0"><path class="st1" d="M50,5C25.1,5,5,25.1,5,50c0,24.9,20.1,45,45,45s45-20.1,45-45C95,25.1,74.9,5,50,5z M52.8,66.7   c0,3-3.6,4.6-5.8,2.6L35.7,59.2h-9.2c-1.9,0-3.5-1.6-3.5-3.5V44.3c0-1.9,1.6-3.5,3.5-3.5h9.2L47,30.7c2.2-2,5.8-0.4,5.8,2.6V66.7z    M73.9,58.3c-2.4-2.4-3.8-3.8-6.2-6.2c-2.4,2.4-3.8,3.8-6.2,6.2c-1.4,1.4-3.5-0.8-2.1-2.1c2.4-2.4,3.8-3.8,6.2-6.2   c-2.4-2.4-3.8-3.8-6.2-6.2c-1.4-1.4,0.8-3.5,2.1-2.1c2.4,2.4,3.8,3.8,6.2,6.2c2.4-2.4,3.8-3.8,6.2-6.2c1.4-1.4,3.5,0.8,2.1,2.1   c-2.4,2.4-3.8,3.8-6.2,6.2c2.4,2.4,3.8,3.8,6.2,6.2C77.4,57.6,75.3,59.7,73.9,58.3z"/></g><g class="st0"><path class="st1" d="M50,5C25.1,5,5,25.1,5,50c0,24.9,20.1,45,45,45s45-20.1,45-45C95,25.1,74.9,5,50,5z M72.6,54.2   c-6.1,0-12.2,0-18.4,0c0,6.1,0,12.2,0,18.4c0,5.5-8.5,5.4-8.5,0c0-6.1,0-12.2,0-18.4c-6.1,0-12.2,0-18.4,0c-5.5,0-5.4-8.5,0-8.5   c6.1,0,12.2,0,18.4,0c0-6.1,0-12.2,0-18.4c0-5.5,8.5-5.4,8.5,0c0,6.1,0,12.2,0,18.4c6.1,0,12.2,0,18.4,0   C78.1,45.8,78,54.2,72.6,54.2z"/></g><g class="st0"><path class="st1" d="M50,5C25.1,5,5,25.1,5,50c0,24.9,20.1,45,45,45s45-20.1,45-45C95,25.1,74.9,5,50,5z M72.6,54.2   c-15.1,0-30.1,0-45.2,0c-5.5,0-5.4-8.5,0-8.5c15.1,0,30.1,0,45.2,0C78.1,45.8,78,54.2,72.6,54.2z"/></g><g class="st0"><path class="st1" d="M50,5C25.1,5,5,25.1,5,50c0,24.9,20.1,45,45,45s45-20.1,45-45C95,25.1,74.9,5,50,5z M63,69   c-4.3-4.3-8.7-8.7-13-13c-4.3,4.3-8.7,8.7-13,13c-3.9,3.9-9.8-2.1-6-6c4.3-4.3,8.7-8.7,13-13c-4.3-4.3-8.7-8.7-13-13   c-3.9-3.9,2.1-9.8,6-6c4.3,4.3,8.7,8.7,13,13c4.3-4.3,8.7-8.7,13-13c3.9-3.9,9.8,2.1,6,6c-4.3,4.3-8.7,8.7-13,13   c4.3,4.3,8.7,8.7,13,13C72.8,66.8,66.8,72.8,63,69z"/></g><text x="0" y="115" fill="#000000" font-size="5px" font-weight="bold" font-family="'Helvetica Neue', Helvetica, Arial-Unicode, Arial, Sans-serif">Created by Darrin Loeliger</text><text x="0" y="120" fill="#000000" font-size="5px" font-weight="bold" font-family="'Helvetica Neue', Helvetica, Arial-Unicode, Arial, Sans-serif">from the Noun Project</text></svg>