<svg xmlns="http://www.w3.org/2000/svg" version="1.1" viewBox="-5.0 -10.0 110.0 135.0">
 <path d="m17 9c-4.418 0-8 3.582-8 8v22c0 4.418 3.582 8 8 8h22c4.418 0 8-3.582 8-8v-22c0-4.418-3.582-8-8-8zm-8 52c0-4.418 3.582-8 8-8h22c4.418 0 8 3.582 8 8v22c0 4.418-3.582 8-8 8h-22c-4.418 0-8-3.582-8-8zm44-44c0-4.418 3.582-8 8-8h22c4.418 0 8 3.582 8 8v22c0 4.418-3.582 8-8 8h-22c-4.418 0-8-3.582-8-8zm0 55c0-10.492 8.5078-19 19-19s19 8.5078 19 19-8.5078 19-19 19-19-8.5078-19-19z" fill-rule="evenodd"/>
<text x="0.0" y="117.5" font-size="5.0" font-weight="bold" font-family="Arbeit Regular, Helvetica, Arial-Unicode, Arial, Sans-serif" fill="#000000">Created by juyeon</text><text x="0.0" y="122.5" font-size="5.0" font-weight="bold" font-family="Arbeit Regular, Helvetica, Arial-Unicode, Arial, Sans-serif" fill="#000000">from Noun Project</text></svg>